mtllib map.mtl
# vertices
v -24 -4 -24
v -24 -4 24
v -10 0 -8
v -8 0 8
v 8 0 8
v 24 -4 24
v 24 -4 -24
v 8 0 -8

# texture coordinates
vt 0.60908604 0.07153765
vt -0.89091396 0.07153765
vt 0.10908604 0.14158079
vt 0.25782394 -0.39735296
vt -2.5344844 -0.47501156
vt -1.2421722 -0.39735264
vt 0.990407 0.067736596
vt 0.490407 0.067736596
vt -0.00959301 -0.019503593
vt 1.490407 -0.019503593
vt 0.5 -0.71875
vt -1 -0.71875
vt -1 0.78125
vt 0.5 0.78125
vt 0 0.28125
vt -0.5625 0.28125
vt -0.5 -0.21875
vt 0 -0.21875
vt 1.9926257 -0.09410433
vt -1.1437385 -0.09410433
vt -0.22896555 -0.018963125
vt 0.947171 -0.018963125
vt 0.22949314 -0.2826571
vt -0.27050686 -0.2826571
vt -0.77050686 -0.3827797
vt 0.72949314 -0.3827797

# normals
vn -0.27472112789737807 0.9615239476408232 -0
vn -0.21685074792883724 0.9758283656797676 0.027106343491104655
vn 0 0.970142500145332 0.242535625036333
vn 0 -1 -0
vn -0 1 -0
vn -0 0.970142500145332 -0.242535625036333
vn 0.242535625036333 0.970142500145332 -0

o entity0_brush0
usemtl arcade/trench/oldschool/Bricks
f  1/1/1  2/2/1  3/3/1
usemtl arcade/trench/oldschool/Bricks
f  3/4/2  2/5/2  4/6/2
usemtl arcade/trench/oldschool/Bricks
f  5/7/3  4/8/3  2/9/3  6/10/3
usemtl arcade/trench/oldschool/Bricks
f  6/11/4  2/12/4  1/13/4  7/14/4
usemtl arcade/trench/oldschool/Bricks
f  8/15/5  3/16/5  4/17/5  5/18/5
usemtl arcade/trench/oldschool/Bricks
f  7/19/6  1/20/6  3/21/6  8/22/6
usemtl arcade/trench/oldschool/Bricks
f  8/23/7  5/24/7  6/25/7  7/26/7

