mtllib map.mtl
# vertices
v -352 -320 -2048
v -352 -320 -1216
v -352 -208 -1216
v -352 -208 -2048
v 0 -208 -1216
v 0 -320 -1216
v 0 -320 -2048
v 0 -208 -2048
v -352 -320 -3328
v -352 -320 -2496
v -352 -208 -2496
v -352 -208 -3328
v 0 -208 -2496
v 0 -320 -2496
v 0 -320 -3328
v 0 -208 -3328
v -352 -320 -5760
v -352 -320 -3584
v -352 -208 -3584
v -352 -208 -5760
v 0 -208 -3584
v 0 -320 -3584
v 0 -320 -5760
v 0 -208 -5760
v -352 -320 -8448
v -352 -320 -6272
v -352 -208 -6272
v -352 -208 -8448
v 0 -208 -6272
v 0 -320 -6272
v 0 -320 -8448
v 0 -208 -8448
v -352 -320 -9728
v -352 -320 -8896
v -352 -208 -8896
v -352 -208 -9728
v 0 -208 -8896
v 0 -320 -8896
v 0 -320 -9728
v 0 -208 -9728
v -352 -320 -10752
v -352 -320 -9920
v -352 -208 -9920
v -352 -208 -10752
v 0 -208 -9920
v 0 -320 -9920
v 0 -320 -10752
v 0 -208 -10752
v -352 -320 -12032
v -352 -320 -11200
v -352 -208 -11200
v -352 -208 -12032
v 0 -208 -11200
v 0 -320 -11200
v 0 -320 -12032
v 0 -208 -12032
v -352 -320 -14208
v -352 -320 -12544
v -352 -208 -12544
v -352 -208 -14208
v 0 -208 -12544
v 0 -320 -12544
v 0 -320 -14208
v 0 -208 -14208
v -352 -320 -15232
v -352 -320 -14400
v -352 -208 -14400
v -352 -208 -15232
v 0 -208 -14400
v 0 -320 -14400
v 0 -320 -15232
v 0 -208 -15232
v -352 -320 -16512
v -352 -320 -15680
v -352 -208 -15680
v -352 -208 -16512
v 0 -208 -15680
v 0 -320 -15680
v 0 -320 -16512
v 0 -208 -16512
v -352 -320 -1024
v -352 -320 -192
v -352 -208 -192
v -352 -208 -1024
v 0 -208 -192
v 0 -320 -192
v 0 -320 -1024
v 0 -208 -1024
v -352 -320 -1024
v -352 -320 -192
v -352 -208 -192
v -352 -208 -1024
v 0 -208 -192
v 0 -320 -192
v 0 -320 -1024
v 0 -208 -1024
v 320 -912 -912
v 320 -912 -624
v 320 448 -624
v 320 448 -912
v 672 448 -624
v 672 -912 -624
v 672 -912 -912
v 672 448 -912
v 320 -912 -176
v 320 -912 -80
v 320 448 -80
v 320 448 -176
v 672 448 -80
v 672 -912 -80
v 672 -912 -176
v 672 448 -176
v 320 176 -624
v 320 176 -176
v 320 448 -176
v 320 448 -624
v 672 448 -176
v 672 176 -176
v 672 176 -624
v 672 448 -624
v 320 -912 -624
v 320 -912 -176
v 320 -208 -176
v 320 -208 -624
v 672 -208 -176
v 672 -912 -176
v 672 -912 -624
v 672 -208 -624
v -84 -336 -0
v -84 -336 1600
v -84 -224 1600
v -84 -224 -0
v 0 -224 1600
v 0 -336 1600
v 0 -336 -0
v 0 -224 -0
v -115.20000000000161 -320 324
v -115.20000000000158 -320 1600
v -115.20000000000158 -208 1600
v -115.20000000000161 -208 324
v -76.80000000000291 -208 1600
v -76.80000000000001 -320 1600
v -76.80000000000001 -320 324
v -76.80000000000291 -208 324
v -84 -320 -0
v -84 -320 324
v -84 -208 324
v -84 -208 -0
v -76.80000000000291 -208 324
v -76.80000000000001 -320 324
v -76.80000000000001 -320 -0
v -76.80000000000291 -208 -0
v -115.20000000000164 -320 -0
v -115.20000000000162 -320 324
v -115.20000000000162 -208 324
v -115.20000000000164 -208 -0
v -108 -208 324
v -108 -320 324
v -108 -320 -0
v -108 -208 -0
v -108 -320 312.97056274847273
v -108 -320 324
v -108 -208 324
v -108 -208 312.97056274847716
v -96.97056274848 -208 324
v -96.97056274847714 -320 324
v -108 -320 -0
v -108 -320 279.02943725152727
v -108 -208 279.02943725152727
v -108 -208 -0
v -84 -208 303.02943725152727
v -84 -320 303.0294372515271
v -84 -320 -0
v -84 -208 -0
v -108 -320 279.02943725152
v -108 -320 303.02943725152
v -108 -208 303.02943725152
v -108 -208 279.0294372515229
v -96 -320 291.02943725152
v -96 -208 291.0294372515215
v -84 -320 312.97056274847273
v -95.02943725152544 -320 324
v -95.02943725152544 -208 324
v -84 -208 312.9705627484765
v -84 -208 324
v -84 -320 324
v -96 -320 291.02943725152727
v -100.97056274847634 -320 296
v -100.97056274847635 -208 296
v -96 -208 291.0294372515242
v -91.02943725152 -208 296
v -91.02943725152107 -320 296
v -100.97056274848 -320 320
v -96.97056274848 -320 324
v -96.97056274848 -208 324
v -100.97056274848002 -208 320
v -95.02943725152 -208 324
v -95.02943725152292 -320 324
v -91.0294372515229 -320 320
v -91.02943725152727 -208 320
v -108 -260 303.02943725152505
v -108 -320 303.02943725152505
v -108 -320 312.97056274848
v -108 -260 312.97056274848
v -100.97056274848 -320 320
v -100.97056274848 -260 320
v -100.97056274847273 -320 296
v -100.97056274847489 -260 296
v -91.0294372515229 -260 320
v -91.0294372515229 -320 320
v -84 -320 312.9705627484771
v -91.02943725152286 -320 296
v -84 -320 303.0294372515228
v -84 -260 303.02943725152
v -91.02943725152 -260 296
v -84 -260 312.97056274847716
v -352 -208 240
v -352 -208 296
v -352 -140 296
v -352 -140 240
v -224 -140 296
v -224 -208 296
v -224 -208 240
v -224 -140 240
v -156 -208 224
v -156 -208 308
v -156 -140 308
v -156 -140 224
v -8 -140 308
v -8 -208 308
v -8 -208 224
v -8 -140 224
v -352 -144 240
v -352 -144 296
v -352 -76 296
v -352 -76 240
v -8 -76 296
v -8 -144 296
v -8 -144 240
v -8 -76 240
v -144 -240 1568
v -80 -240 2224
v -80 -16 2224
v -144 -16 1568
v -32 -16 2224
v -32 -240 2224
v -32 -240 1600
v -32 -16 1600
v -352 -240 1600
v -352 -240 2208
v -352 -16 2208
v -352 -16 1600
v -304 -16 2208
v -304 -240 2208
v -304 -240 1600
v -304 -16 1600
v -304 -240 1600
v -304 -240 2224
v -304 -208 2224
v -304 -208 1600
v -80 -208 2224
v -80 -240 2224
v -80 -240 1600
v -80 -208 1600
v -304 -208 1600
v -304 -208 2000
v -304 -192 2000
v -304 -192 1600
v -80 -192 2000
v -80 -208 2000
v -80 -208 1600
v -80 -192 1600
v -304 -208 2000
v -304 -208 2096
v -304 -192 2000
v -80 -192 2000
v -80 -208 2096
v -80 -208 2000
v -304 -208 2208
v -304 -208 2224
v -304 -32 2224
v -304 -32 2208
v -80 -32 2224
v -80 -208 2224
v -80 -208 2208
v -80 -32 2208
v -176 -32 1600
v -176 -32 2224
v -176 -16 2224
v -176 -16 1600
v -80 -16 2224
v -80 -32 2224
v -80 -32 1600
v -80 -16 1600
v -304 -32 1600
v -304 -32 2224
v -304 -16 2224
v -304 -16 1600
v -256 -16 2224
v -256 -32 2224
v -256 -32 1600
v -256 -16 1600
v -256 -32 1600
v -256 -32 1856
v -256 -16 1856
v -256 -16 1600
v -176 -16 1856
v -176 -32 1856
v -176 -32 1600
v -176 -16 1600
v -256 -32 2032
v -256 -32 2224
v -256 -16 2224
v -256 -16 2032
v -176 -16 2224
v -176 -32 2224
v -176 -32 2032
v -176 -16 2032
v -256 -32 1856
v -256 -32 2032
v -256 -16 2032
v -256 -16 1856
v -176 -16 2032
v -176 -32 2032
v -176 -32 1856
v -176 -16 1856
v -528 -192 1776
v -528 -192 1872
v -528 -176 1776
v -304 -176 1776
v -304 -192 1872
v -304 -192 1776
v -304 -112 1600
v -304 -112 1632
v -304 -32 1632
v -304 -32 1600
v -144 -32 1632
v -144 -112 1632
v -144 -112 1600
v -144 -32 1600
v -304 -192 1600
v -304 -192 1616
v -304 -112 1616
v -304 -112 1600
v -272 -112 1616
v -272 -192 1616
v -272 -192 1600
v -272 -112 1600
v -176 -192 1600
v -176 -192 1616
v -176 -112 1616
v -176 -112 1600
v -144 -112 1616
v -144 -192 1616
v -144 -192 1600
v -144 -112 1600
v -52 -204 388
v -84 -210 388
v -84 -210 418
v -52 -204 418
v -52 -208 418
v -52 -208 388
v -352 -320 -0
v -352 -320 1600
v -352 -208 1600
v -352 -208 -0
v -116 -208 1600
v -116 -320 1600
v -116 -320 -0
v -116 -208 -0
v 260.7206547413043 29.840628004356404 -62
v 260.0910723347333 29.840628004356404 -64.34963352888008
v 260.0910723347333 -125.8406280043564 -64.34963352888008
v 260.7206547413046 -125.8406280043564 -62
v 335.27934525870296 -125.84062800435639 -84.496270539139
v 335.2793452587034 29.840628004356404 -84.49627053913959
v 335.9089276652703 -125.84062800435639 -82.14663701026984
v 335.9089276652745 29.840628004356404 -82.14663701026527
v 321.71513996951035 29.840628004356404 -38.96802252524503
v 319.99508884720126 29.840628004356404 -40.68807364755412
v 319.99508884720126 -125.8406280043564 -40.688073647554106
v 321.7151399695092 -125.8406280043564 -38.9680225252464
v 375.03672476091015 -125.8406280043564 -95.72970956124118
v 375.0367247609143 29.840628004356404 -95.72970956124533
v 376.7567758832156 -125.8406280043564 -94.00965843893573
v 376.7567758832199 29.840628004356404 -94.00965843894002
v 403.54963569745996 -125.84062800435277 -87.53299530005825
v 383.4029986871765 -125.84062800435277 -12.344722376090424
v 383.4029986871765 29.840628004357 -12.344722376090433
v 403.5496356974608 29.840628004357 -87.53299530005873
v 385.7526322160593 29.840628004357 -11.715139969517622
v 385.752632216058 -125.84062800435277 -11.71513996951783
v 405.89926922633214 -125.84062800435277 -86.90341289348802
v 405.89926922633094 29.840628004357 -86.90341289348908

# texture coordinates
vt 2.9547582 -0
vt 1.6567863 -0
vt 1.6567863 0.31111112
vt 2.9547582 0.31111112
vt -0.698908 0.31111112
vt -1.24805 0.31111112
vt -1.24805 -0
vt -0.698908 -0
vt -0.698908 3.3333333
vt -1.24805 3.3333333
vt -1.24805 5.6444445
vt -0.698908 5.6444445
vt 4.954758 -0
vt 3.6567862 -0
vt 3.6567862 0.31111112
vt 4.954758 0.31111112
vt -0.698908 6.3333335
vt -1.24805 6.3333335
vt -1.24805 8.644444
vt -0.698908 8.644444
vt 9.954759 -0
vt 6.5600624 -0
vt 6.5600624 0.31111112
vt 9.954759 0.31111112
vt -0.698908 10.6
vt -1.24805 10.6
vt -1.24805 16.644444
vt -0.698908 16.644444
vt 13.954759 -0
vt 10.560062 -0
vt 10.560062 0.31111112
vt 13.954759 0.31111112
vt 0.30109206 0.31111112
vt -0.24804991 0.31111112
vt -0.24804991 -0
vt 0.30109206 -0
vt 0.30109206 17.6
vt -0.24804991 17.6
vt -0.24804991 23.644444
vt 0.30109206 23.644444
vt 14.954759 -0
vt 13.656786 -0
vt 13.656786 0.31111112
vt 14.954759 0.31111112
vt 0.30109206 24.333334
vt -0.24804991 24.333334
vt -0.24804991 26.644444
vt 0.30109206 26.644444
vt 15.954759 -0
vt 14.656786 -0
vt 14.656786 0.31111112
vt 15.954759 0.31111112
vt 0.30109206 27.333334
vt -0.24804991 27.333334
vt -0.24804991 29.644444
vt 0.30109206 29.644444
vt 17.954758 -0
vt 16.656786 -0
vt 16.656786 0.31111112
vt 17.954758 0.31111112
vt 0.30109206 30.333334
vt -0.24804991 30.333334
vt -0.24804991 32.644444
vt 0.30109206 32.644444
vt 21.954758 -0
vt 19.358814 -0
vt 19.358814 0.31111112
vt 21.954758 0.31111112
vt 0.30109206 34.02222
vt -0.24804991 34.02222
vt -0.24804991 38.644444
vt 0.30109206 38.644444
vt 22.954758 -0
vt 21.656786 -0
vt 21.656786 0.31111112
vt 22.954758 0.31111112
vt 0.30109206 39.333332
vt -0.24804991 39.333332
vt -0.24804991 41.644444
vt 0.30109206 41.644444
vt 24.954758 -0
vt 23.656786 -0
vt 23.656786 0.31111112
vt 24.954758 0.31111112
vt 0.30109206 43.333332
vt -0.24804991 43.333332
vt -0.24804991 45.644444
vt 0.30109206 45.644444
vt 0.95475817 -0
vt -0.34321374 -0
vt -0.34321374 0.31111112
vt 0.95475817 0.31111112
vt -0.698908 0.33333334
vt -1.24805 0.33333334
vt -1.24805 2.6444445
vt -0.698908 2.6444445
vt 0.95475817 -2
vt 0.5054602 -2
vt 0.5054602 1.7777778
vt 0.95475817 1.7777778
vt 0.30265212 1.2444445
vt -0.24648985 1.2444445
vt -0.24648985 -2.5333333
vt 0.30265212 -2.5333333
vt 0.30109206 1.8444444
vt -0.24804991 1.8444444
vt -0.24804991 2.6444445
vt 0.30109206 2.6444445
vt 0.30109206 -2
vt -0.24804991 -2
vt -0.24804991 1.7777778
vt 0.30109206 1.7777778
vt -0.19344774 -2
vt -0.34321374 -2
vt -0.34321374 1.7777778
vt -0.19344774 1.7777778
vt 0.30109206 0.33333334
vt -0.24804991 0.33333334
vt -0.24804991 0.6
vt 0.30109206 0.6
vt 0.5054602 1.0222223
vt -0.19344774 1.0222223
vt -0.24648985 0.4888889
vt 0.30265212 0.4888889
vt 0.30265212 1.4
vt -0.24648985 1.4
vt -0.24648985 2.6444445
vt 0.30265212 2.6444445
vt -0.19344774 -0.044444446
vt 0.5054602 -0.044444446
vt 0.30265212 -0.5777778
vt -0.24648985 -0.5777778
vt 0 -1.0458333
vt -2.4961 -1.0458333
vt -2.4961 -0.65694445
vt 0 -0.65694445
vt -0.8299532 0.31111112
vt -0.8299532 -0
vt -0.698908 -4.6666665
vt -0.8299532 -4.6666665
vt -0.8299532 -0.22222222
vt -0.698908 -0.22222222
vt 0.15288612 0.31111112
vt -2.3432138 0.31111112
vt -2.3432138 -0
vt 0.15288612 -0
vt -0.5054602 -1.0458333
vt -0.5054602 -0.65694445
vt -0.81872076 0.31111112
vt -0.8786272 0.31111112
vt -0.8786272 -0
vt -0.81872076 -0
vt -0.81872076 -4.6666665
vt -0.8786272 -4.6666665
vt -0.8786272 -1.1222222
vt -0.81872076 -1.1222222
vt -0.12480499 -1.0458333
vt -0.19968799 -1.0458333
vt -0.19968799 -0.65694445
vt -0.12480499 -0.65694445
vt 0 -0.76666665
vt -0.5054602 -0.76666665
vt -0.5054602 -0.45555556
vt 0 -0.45555556
vt -0.13884555 -0.65694445
vt -0.13884555 -1.0458333
vt -0.8299532 -1.1222222
vt -0.81872076 -0.22222222
vt -0.18564744 -0.65694445
vt -0.18564744 -1.0458333
vt -0.8673947 -1.1222222
vt -0.8786272 -0.22222222
vt -0.8673947 -0.22222222
vt -0.8673947 -0
vt -0.8673947 0.31111112
vt -0.4882536 -0.76666665
vt -0.4882536 -0.45555556
vt -0.16413917 -0.65694445
vt -0.16413917 -1.0458333
vt -0.85018814 -1.1222222
vt -0.8673947 -1.0915849
vt -0.15128013 -0.76666665
vt -0.16848674 -0.76666665
vt -0.16848674 -0.45555556
vt -0.15128013 -0.45555556
vt -0.43530336 -0.76666665
vt -0.43530336 -0.45555556
vt -0.13104524 -0.45555556
vt -0.13104524 -0.76666665
vt -0.8299532 -1.0639707
vt -0.8673947 -0.997304
vt -0.47274485 -0.45555556
vt -0.47274485 -0.76666665
vt -0.84867394 -1.0306374
vt -0.8673947 -1.0639707
vt -0.14976598 -0.45555556
vt -0.14976598 -0.76666665
vt -0.14825185 -0.76666665
vt -0.14825185 -0.45555556
vt -0.16035381 -0.65694445
vt -0.16035381 -1.0458333
vt -0.8471598 -1.1222222
vt -0.8299532 -1.0915849
vt -0.4540241 -0.76666665
vt -0.46177846 -0.76666665
vt -0.46177846 -0.45555556
vt -0.4540241 -0.45555556
vt -0.1420116 -0.45555556
vt -0.15752038 -0.45555556
vt -0.15752038 -0.76666665
vt -0.1420116 -0.76666665
vt -0.84091955 -1.0444444
vt -0.8564284 -1.0444444
vt -0.8564284 -1.1111112
vt -0.84091955 -1.1111112
vt -0.47274485 -0.6
vt -0.4882536 -0.6
vt -0.16848674 -0.6
vt -0.15752038 -0.6
vt -0.1420116 -0.6
vt -0.13104524 -0.8417485
vt -0.1420116 -0.82222223
vt -0.15752038 -0.82222223
vt -0.16848674 -0.8417485
vt -0.16848674 -0.86936265
vt -0.15752038 -0.8888889
vt -0.1420116 -0.8888889
vt -0.13104524 -0.86936265
vt -0.13104524 -0.6
vt -0.43681747 -0.5777778
vt -0.52418095 -0.5777778
vt -0.52418095 -0.3888889
vt -0.43681747 -0.3888889
vt -0.349454 -0.3888889
vt -0.54914194 -0.3888889
vt -0.54914194 -0.5777778
vt -0.349454 -0.5777778
vt -0.349454 -0.93333334
vt -0.54914194 -0.93333334
vt -0.54914194 -0.7777778
vt -0.349454 -0.7777778
vt -0.5678627 -0.5777778
vt -0.5678627 -0.3888889
vt -0.41809672 -0.3888889
vt -0.648986 -0.3888889
vt -0.648986 -0.5777778
vt -0.41809672 -0.5777778
vt -0.41809672 -1.0111111
vt -0.648986 -1.0111111
vt -0.648986 -0.7777778
vt -0.41809672 -0.7777778
vt -0.012480499 -0.3888889
vt -0.012480499 -0.5777778
vt -0.012480499 -0.93333334
vt -0.012480499 -0.7777778
vt -0.66461533 -0.21621622
vt -0.98461527 -0.21621622
vt -0.98461527 -0.014414415
vt -0.66461533 -0.014414415
vt 0.021333333 0.012307692
vt -0.042666666 0.012307692
vt -0.042666666 -0.16
vt 0.021333333 -0.16
vt 0.021333333 -1.6861539
vt -0.042666666 -1.6861539
vt -0.128 -1.1815385
vt 0.021333333 -1.2061539
vt 0.021333264 -0.16
vt -0.042666737 -0.16
vt -0.042666737 0.012307692
vt 0.021333264 0.012307692
vt -2.0906668 0.012307692
vt -2.9226665 0.012307692
vt -2.9226665 -0.16
vt -2.0906668 -0.16
vt -2.9013333 -0.16
vt -2.9013333 0.012307692
vt -0.34133333 0.012307692
vt -0.40533334 0.012307692
vt -0.40533334 -0.16
vt -0.34133333 -0.16
vt -0.34133333 -1.6738461
vt -0.40533334 -1.6738461
vt -0.40533334 -1.2061539
vt -0.34133333 -1.2061539
vt -0.6646154 -0.014414415
vt -0.97641027 -0.014414415
vt -0.97641027 -0.21621622
vt -0.6646154 -0.21621622
vt -0.9846154 -0.21621622
vt -0.9846154 -0.18738739
vt -0.6646154 -0.18738739
vt -0.042666666 -0.13538462
vt -0.34133333 -0.13538462
vt -0.34133333 -1.6861539
vt -0.042666666 -1.2061539
vt -0.04923077 -1.1675676
vt -0.16410257 -1.1675676
vt -0.16410257 -1.7297298
vt -0.04923077 -1.7297298
vt -0.82051283 -0.18738739
vt -1.0256411 -0.18738739
vt -1.0256411 -0.17297298
vt -0.82051283 -0.17297298
vt -0.041025642 -0.17297298
vt -0.15589744 -0.17297298
vt -0.15589744 -0.18738739
vt -0.041025642 -0.18738739
vt -0.041025642 -1.8018018
vt -0.15589744 -1.8018018
vt -0.15589744 -1.4414414
vt -0.041025642 -1.4414414
vt -0.97641027 -0.18738739
vt -0.97641027 -0.17297298
vt -0.041025642 -1.7153153
vt -0.15589744 -1.7153153
vt -8.625 -0.8125
vt -8.6875 -0.8125
vt -8.6875 -0.125
vt -8.625 -0.125
vt -0.3125 -0.125
vt -1.1875 -0.125
vt -1.1875 -0.8125
vt -0.3125 -0.8125
vt -0.3125 -8.6875
vt -1.1875 -8.6875
vt -1.1875 -8.625
vt -0.3125 -8.625
vt -6.25 -0.5
vt -8.6875 -0.5
vt -8.6875 -0.4375
vt -6.25 -0.4375
vt -0.17066666 0.012307692
vt -0.17066666 -0
vt -0.042666666 -0
vt -0.09846154 -1.7297298
vt -0.09846154 -1.1675676
vt -0.17066666 -1.2061539
vt -0.17066666 -1.6861539
vt -0.9846154 -0.014414415
vt -0.9846154 -0.02882883
vt -0.6646154 -0.02882883
vt -0.27733332 0.012307692
vt -0.34133333 -0
vt -0.27733332 -0
vt -0.13948718 -1.7297298
vt -0.13948718 -1.1675676
vt -0.27733332 -1.2061539
vt -0.27733332 -1.6861539
vt -7.25 -0.5
vt -7.25 -0.4375
vt -0.625 -0.4375
vt -0.9375 -0.4375
vt -0.9375 -0.5
vt -0.625 -0.5
vt -0.09846154 -1.3981982
vt -0.13948718 -1.3981982
vt -0.27733332 -1.4030769
vt -0.17066666 -1.4030769
vt -7.9375 -0.5
vt -7.9375 -0.4375
vt -0.13948718 -1.5567567
vt -0.09846154 -1.5567567
vt -0.17066666 -1.5384616
vt -0.27733332 -1.5384616
vt -7.25 -0.125
vt -7.9375 -0.125
vt -7.9375 -0.0625
vt -7.25 -0.0625
vt -0.6875 -0.0625
vt -1 -0.0625
vt -1 -0.125
vt -0.6875 -0.125
vt -0.6875 -7.9375
vt -1 -7.9375
vt -1 -7.25
vt -0.6875 -7.25
vt -0.80410254 -0.17297298
vt -0.82051283 -0.1009009
vt -0.80410254 -0.1009009
vt -0.13128205 -0.1009009
vt -0.21333334 -0.1009009
vt -0.21333334 -0.17297298
vt -0.13128205 -0.17297298
vt -0.13128205 -1.4414414
vt -0.21333334 -1.4414414
vt -0.21333334 -1.4126126
vt -0.13128205 -1.4126126
vt -0.82871795 -0.17297298
vt -0.82871795 -0.1009009
vt -0.13948718 -0.1009009
vt -0.15589744 -0.1009009
vt -0.13948718 -0.17297298
vt -0.13948718 -1.4558558
vt -0.15589744 -1.4558558
vt -0.13948718 -1.4414414
vt -0.109375 -0.375
vt -0.140625 -0.375
vt -0.140625 -0.40429688
vt -0.109375 -0.40429688
vt -0.12197526 -0.19806625
vt -0.15346846 -0.20194979
vt -0.12221845 -0.20194979
vt -0.375 -0.19921875
vt -0.40429688 -0.19921875
vt -0.40429688 -0.203125
vt -0.375 -0.203125
vt -0.8798752 0.31111112
vt -0.8798752 -0
vt -0.8798752 -4.6666665
vt -1.24805 -4.6666665
vt -1.24805 -0.22222222
vt -0.8798752 -0.22222222
vt 0.020280782 0.5222223
vt 0.020280782 0.53333336
vt -0.3790951 0.53333336
vt -0.3790951 0.5222223
vt -0.3790951 -1.7277777
vt -0.3790951 -1.3722222
vt 0.020280782 -1.3722222
vt 0.020280782 -1.7277777
vt 0.29329175 -1.7277777
vt 0.29329172 -1.3722223
vt 0.29953197 -1.3722223
vt 0.299532 -1.7277777
vt 0.020280782 0.5333333
vt 0.020280782 0.52222216
vt -0.3790951 0.52222216
vt -0.3790951 0.5333333
vt 0.020280782 -1.4777777
vt 0.020280782 -1.4666668
vt -0.3790951 -1.4666668
vt -0.3790951 -1.4777777
vt -0.3790951 -1.3722224
vt 0.020280782 -1.3722224
vt 0.29329193 -1.7277777
vt 0.29329193 -1.3722223
vt 0.29953218 -1.3722223
vt 0.29953218 -1.7277777
vt -0.3790951 -1.4666667
vt 0.020280782 -1.4666667
vt -0.3790951 -0.7277778
vt -0.3790951 -0.37222221
vt 0.020280782 -0.37222221
vt 0.020280782 -0.7277778
vt -0.7067082 -1.3722223
vt -0.70046794 -1.3722223
vt -0.70046794 -1.7277777
vt -0.7067082 -1.7277777
vt -0.3790951 -2.4777777
vt -0.3790951 -2.4666667
vt 0.020280782 -2.4666667
vt 0.020280782 -2.4777777
vt 0.020280782 -0.7277777
vt 0.020280782 -0.3722222
vt -0.3790951 -0.3722222
vt -0.3790951 -0.7277777

# normals
vn -1 0 -0
vn 0 0 1
vn 0 -1 -0
vn 0 1 -0
vn 0 0 -1
vn 1 0 -0
vn 1 -1.2688263138573217e-16 -0
vn 1 2.5884056802689363e-14 0
vn -1 0 4.386066270124075e-17
vn 0.7071067811865466 0 -0.7071067811865485
vn -0.707106781186545 -0 0.70710678118655
vn 0.7071067811865458 0 0.7071067811865491
vn 0.7071067811865458 -0 -0.7071067811865491
vn -0.7071067811865452 0 -0.7071067811865498
vn -0.7071067811865476 0 -0.7071067811865476
vn 0.7071067811865435 -0 -0.7071067811865516
vn -0.7071067811865462 0 0.7071067811865488
vn 0.707106781186545 0 0.70710678118655
vn -0.7071067811865468 0 0.7071067811865482
vn -0.7071067811865447 0 -0.7071067811865503
vn 0.7071067811865446 -0 -0.7071067811865503
vn 0.7071067811865454 0 0.7071067811865497
vn -0.995274633925616 0 0.09709996428542594
vn 0.27472112789737807 -0 -0.9615239476408232
vn 0 0.9863939238321437 0.1643989873053573
vn -0.18428853505018536 0.9828721869343219 -0
vn 0.06237828615518054 -0.9980525784828886 -0
vn -0.9659258262890535 0 0.25881904510257564
vn -0.25881904510241127 0 -0.9659258262890975
vn 0.25881904510247983 0 0.9659258262890792
vn 0.9659258262890501 -0 -0.25881904510258874
vn -0.7071067811865006 0 0.7071067811865942
vn -0.7071067811864072 0 -0.7071067811866877
vn 0.7071067811864541 0 0.707106781186641
vn 0.7071067811865007 -0 -0.7071067811865943
vn -0.9659258262890164 0 -0.258819045102715
vn -0.2588190451024097 0 0.965925826289098
vn 0.25881904510245646 -0 -0.9659258262890855
vn 0.9659258262890504 0 0.2588190451025873

o entity0_brush0
usemtl arcade/trench/aurora
f  1/1/1  2/2/1  3/3/1  4/4/1
usemtl arcade/trench/aurora
f  5/5/2  3/6/2  2/7/2  6/8/2
usemtl arcade/trench/aurora
f  6/9/3  2/10/3  1/11/3  7/12/3
usemtl arcade/trench/aurora
f  8/12/4  4/11/4  3/10/4  5/9/4
usemtl arcade/trench/aurora
f  7/8/5  1/7/5  4/6/5  8/5/5
usemtl arcade/trench/aurora
f  8/4/6  5/3/6  6/2/6  7/1/6

o entity0_brush1
usemtl arcade/trench/aurora
f  9/13/1  10/14/1  11/15/1  12/16/1
usemtl arcade/trench/aurora
f  13/5/2  11/6/2  10/7/2  14/8/2
usemtl arcade/trench/aurora
f  14/17/3  10/18/3  9/19/3  15/20/3
usemtl arcade/trench/aurora
f  16/20/4  12/19/4  11/18/4  13/17/4
usemtl arcade/trench/aurora
f  15/8/5  9/7/5  12/6/5  16/5/5
usemtl arcade/trench/aurora
f  16/16/6  13/15/6  14/14/6  15/13/6

o entity0_brush2
usemtl arcade/trench/aurora
f  17/21/1  18/22/1  19/23/1  20/24/1
usemtl arcade/trench/aurora
f  21/5/2  19/6/2  18/7/2  22/8/2
usemtl arcade/trench/aurora
f  22/25/3  18/26/3  17/27/3  23/28/3
usemtl arcade/trench/aurora
f  24/28/4  20/27/4  19/26/4  21/25/4
usemtl arcade/trench/aurora
f  23/8/5  17/7/5  20/6/5  24/5/5
usemtl arcade/trench/aurora
f  24/24/6  21/23/6  22/22/6  23/21/6

o entity0_brush3
usemtl arcade/trench/aurora
f  25/29/1  26/30/1  27/31/1  28/32/1
usemtl arcade/trench/aurora
f  29/33/2  27/34/2  26/35/2  30/36/2
usemtl arcade/trench/aurora
f  30/37/3  26/38/3  25/39/3  31/40/3
usemtl arcade/trench/aurora
f  32/40/4  28/39/4  27/38/4  29/37/4
usemtl arcade/trench/aurora
f  31/36/5  25/35/5  28/34/5  32/33/5
usemtl arcade/trench/aurora
f  32/32/6  29/31/6  30/30/6  31/29/6

o entity0_brush4
usemtl arcade/trench/aurora
f  33/41/1  34/42/1  35/43/1  36/44/1
usemtl arcade/trench/aurora
f  37/33/2  35/34/2  34/35/2  38/36/2
usemtl arcade/trench/aurora
f  38/45/3  34/46/3  33/47/3  39/48/3
usemtl arcade/trench/aurora
f  40/48/4  36/47/4  35/46/4  37/45/4
usemtl arcade/trench/aurora
f  39/36/5  33/35/5  36/34/5  40/33/5
usemtl arcade/trench/aurora
f  40/44/6  37/43/6  38/42/6  39/41/6

o entity0_brush5
usemtl arcade/trench/aurora
f  41/49/1  42/50/1  43/51/1  44/52/1
usemtl arcade/trench/aurora
f  45/33/2  43/34/2  42/35/2  46/36/2
usemtl arcade/trench/aurora
f  46/53/3  42/54/3  41/55/3  47/56/3
usemtl arcade/trench/aurora
f  48/56/4  44/55/4  43/54/4  45/53/4
usemtl arcade/trench/aurora
f  47/36/5  41/35/5  44/34/5  48/33/5
usemtl arcade/trench/aurora
f  48/52/6  45/51/6  46/50/6  47/49/6

o entity0_brush6
usemtl arcade/trench/aurora
f  49/57/1  50/58/1  51/59/1  52/60/1
usemtl arcade/trench/aurora
f  53/33/2  51/34/2  50/35/2  54/36/2
usemtl arcade/trench/aurora
f  54/61/3  50/62/3  49/63/3  55/64/3
usemtl arcade/trench/aurora
f  56/64/4  52/63/4  51/62/4  53/61/4
usemtl arcade/trench/aurora
f  55/36/5  49/35/5  52/34/5  56/33/5
usemtl arcade/trench/aurora
f  56/60/6  53/59/6  54/58/6  55/57/6

o entity0_brush7
usemtl arcade/trench/aurora
f  57/65/1  58/66/1  59/67/1  60/68/1
usemtl arcade/trench/aurora
f  61/33/2  59/34/2  58/35/2  62/36/2
usemtl arcade/trench/aurora
f  62/69/3  58/70/3  57/71/3  63/72/3
usemtl arcade/trench/aurora
f  64/72/4  60/71/4  59/70/4  61/69/4
usemtl arcade/trench/aurora
f  63/36/5  57/35/5  60/34/5  64/33/5
usemtl arcade/trench/aurora
f  64/68/6  61/67/6  62/66/6  63/65/6

o entity0_brush8
usemtl arcade/trench/aurora
f  65/73/1  66/74/1  67/75/1  68/76/1
usemtl arcade/trench/aurora
f  69/33/2  67/34/2  66/35/2  70/36/2
usemtl arcade/trench/aurora
f  70/77/3  66/78/3  65/79/3  71/80/3
usemtl arcade/trench/aurora
f  72/80/4  68/79/4  67/78/4  69/77/4
usemtl arcade/trench/aurora
f  71/36/5  65/35/5  68/34/5  72/33/5
usemtl arcade/trench/aurora
f  72/76/6  69/75/6  70/74/6  71/73/6

o entity0_brush9
usemtl arcade/trench/aurora
f  73/81/1  74/82/1  75/83/1  76/84/1
usemtl arcade/trench/aurora
f  77/33/2  75/34/2  74/35/2  78/36/2
usemtl arcade/trench/aurora
f  78/85/3  74/86/3  73/87/3  79/88/3
usemtl arcade/trench/aurora
f  80/88/4  76/87/4  75/86/4  77/85/4
usemtl arcade/trench/aurora
f  79/36/5  73/35/5  76/34/5  80/33/5
usemtl arcade/trench/aurora
f  80/84/6  77/83/6  78/82/6  79/81/6

o entity0_brush10
usemtl arcade/trench/aurora
f  81/89/1  82/90/1  83/91/1  84/92/1
usemtl arcade/trench/aurora
f  85/5/2  83/6/2  82/7/2  86/8/2
usemtl arcade/trench/aurora
f  86/93/3  82/94/3  81/95/3  87/96/3
usemtl arcade/trench/aurora
f  88/96/4  84/95/4  83/94/4  85/93/4
usemtl arcade/trench/aurora
f  87/8/5  81/7/5  84/6/5  88/5/5
usemtl arcade/trench/aurora
f  88/92/6  85/91/6  86/90/6  87/89/6

o entity0_brush11
usemtl arcade/trench/aurora
f  89/89/1  90/90/1  91/91/1  92/92/1
usemtl arcade/trench/aurora
f  93/5/2  91/6/2  90/7/2  94/8/2
usemtl arcade/trench/aurora
f  94/93/3  90/94/3  89/95/3  95/96/3
usemtl arcade/trench/aurora
f  96/96/4  92/95/4  91/94/4  93/93/4
usemtl arcade/trench/aurora
f  95/8/5  89/7/5  92/6/5  96/5/5
usemtl arcade/trench/aurora
f  96/92/6  93/91/6  94/90/6  95/89/6

o entity0_brush12
usemtl arcade/trench/aurora
f  97/97/1  98/98/1  99/99/1  100/100/1
usemtl arcade/trench/aurora
f  101/101/2  99/102/2  98/103/2  102/104/2
usemtl arcade/trench/aurora
f  102/105/3  98/106/3  97/107/3  103/108/3
usemtl arcade/trench/aurora
f  104/108/4  100/107/4  99/106/4  101/105/4
usemtl arcade/trench/aurora
f  103/109/5  97/110/5  100/111/5  104/112/5
usemtl arcade/trench/aurora
f  104/100/6  101/99/6  102/98/6  103/97/6

o entity0_brush13
usemtl arcade/trench/aurora
f  105/113/1  106/114/1  107/115/1  108/116/1
usemtl arcade/trench/aurora
f  109/112/2  107/111/2  106/110/2  110/109/2
usemtl arcade/trench/aurora
f  110/117/3  106/118/3  105/119/3  111/120/3
usemtl arcade/trench/aurora
f  112/120/4  108/119/4  107/118/4  109/117/4
usemtl arcade/trench/aurora
f  111/104/5  105/103/5  108/102/5  112/101/5
usemtl arcade/trench/aurora
f  112/116/6  109/115/6  110/114/6  111/113/6

o entity0_brush14
usemtl arcade/trench/aurora
f  113/121/1  114/122/1  115/116/1  116/99/1
usemtl arcade/trench/aurora
f  117/101/2  115/102/2  114/123/2  118/124/2
usemtl arcade/trench/aurora
f  118/125/3  114/126/3  113/127/3  119/128/3
usemtl arcade/trench/aurora
f  120/105/4  116/106/4  115/119/4  117/120/4
usemtl arcade/trench/aurora
f  119/124/5  113/123/5  116/102/5  120/101/5
usemtl arcade/trench/aurora
f  120/99/6  117/116/6  118/122/6  119/121/6

o entity0_brush15
usemtl arcade/trench/aurora
f  121/98/1  122/113/1  123/129/1  124/130/1
usemtl arcade/trench/aurora
f  125/131/2  123/132/2  122/103/2  126/104/2
usemtl arcade/trench/aurora
f  126/120/3  122/119/3  121/106/3  127/105/3
usemtl arcade/trench/aurora
f  128/128/4  124/127/4  123/126/4  125/125/4
usemtl arcade/trench/aurora
f  127/104/5  121/103/5  124/132/5  128/131/5
usemtl arcade/trench/aurora
f  128/130/6  125/129/6  126/113/6  127/98/6

o entity0_brush16
usemtl arcade/trench/aurora
f  129/133/1  130/134/1  131/135/1  132/136/1
usemtl arcade/trench/aurora
f  133/5/2  131/137/2  130/138/2  134/8/2
usemtl arcade/trench/aurora
f  134/139/3  130/140/3  129/141/3  135/142/3
usemtl arcade/trench/aurora
f  136/142/4  132/141/4  131/140/4  133/139/4
usemtl arcade/trench/aurora
f  135/8/5  129/138/5  132/137/5  136/5/5
usemtl arcade/trench/aurora
f  136/143/6  133/144/6  134/145/6  135/146/6

o entity0_brush17
usemtl arcade/trench/aurora
f  137/147/1  138/134/1  139/135/1  140/148/1
usemtl arcade/trench/aurora
f  141/149/2  139/150/2  138/151/2  142/152/2
usemtl arcade/trench/aurora
f  142/153/3  138/154/3  137/155/3  143/156/3
usemtl arcade/trench/aurora
f  144/156/4  140/155/4  139/154/4  141/153/4
usemtl arcade/trench/aurora
f  143/157/5  137/158/5  140/159/5  144/160/5
usemtl arcade/trench/aurora
f  144/148/7  141/135/7  142/134/7  143/147/7

o entity0_brush18
usemtl arcade/trench/aurora
f  145/161/1  146/162/1  147/163/1  148/164/1
usemtl arcade/trench/aurora
f  149/160/2  147/165/2  146/166/2  150/157/2
usemtl arcade/trench/aurora
f  150/156/3  146/167/3  145/141/3  151/168/3
usemtl arcade/trench/aurora
f  152/168/4  148/141/4  147/167/4  149/156/4
usemtl arcade/trench/aurora
f  151/152/5  145/138/5  148/137/5  152/149/5
usemtl arcade/trench/aurora
f  152/136/8  149/148/8  150/147/8  151/133/8

o entity0_brush19
usemtl arcade/trench/aurora
f  153/133/9  154/147/9  155/148/9  156/136/9
usemtl arcade/trench/aurora
f  157/169/2  155/159/2  154/158/2  158/170/2
usemtl arcade/trench/aurora
f  158/171/3  154/155/3  153/172/3  159/173/3
usemtl arcade/trench/aurora
f  160/173/4  156/172/4  155/155/4  157/171/4
usemtl arcade/trench/aurora
f  159/174/5  153/151/5  156/150/5  160/175/5
usemtl arcade/trench/aurora
f  160/164/6  157/163/6  158/162/6  159/161/6

o entity0_brush20
usemtl arcade/trench/aurora
f  161/176/1  162/162/1  163/163/1  164/177/1
usemtl arcade/trench/aurora
f  165/178/2  163/169/2  162/170/2  166/179/2
usemtl arcade/trench/aurora
f  166/180/3  162/171/3  161/181/3
usemtl arcade/trench/aurora
f  164/181/4  163/171/4  165/180/4
usemtl arcade/trench/aurora
f  166/182/10  161/183/10  164/184/10  165/185/10

o entity0_brush21
usemtl arcade/trench/aurora
f  167/161/1  168/186/1  169/187/1  170/164/1
usemtl arcade/trench/aurora
f  171/188/11  169/184/11  168/183/11  172/189/11
usemtl arcade/trench/aurora
f  172/190/3  168/191/3  167/173/3  173/141/3
usemtl arcade/trench/aurora
f  174/141/4  170/173/4  169/191/4  171/190/4
usemtl arcade/trench/aurora
f  173/138/5  167/174/5  170/175/5  174/137/5
usemtl arcade/trench/aurora
f  173/161/6  174/164/6  171/192/6  172/193/6

o entity0_brush22
usemtl arcade/trench/aurora
f  175/186/1  176/193/1  177/192/1  178/187/1
usemtl arcade/trench/aurora
f  179/194/3  176/195/3  175/191/3
usemtl arcade/trench/aurora
f  178/191/4  177/195/4  180/194/4
usemtl arcade/trench/aurora
f  180/196/12  177/184/12  176/183/12  179/197/12
usemtl arcade/trench/aurora
f  175/183/13  178/184/13  180/196/13  179/197/13

o entity0_brush23
usemtl arcade/trench/aurora
f  181/189/14  182/198/14  183/199/14  184/188/14
usemtl arcade/trench/aurora
f  185/165/2  183/200/2  182/201/2  186/166/2
usemtl arcade/trench/aurora
f  186/167/3  182/202/3  181/203/3
usemtl arcade/trench/aurora
f  184/203/4  183/202/4  185/167/4
usemtl arcade/trench/aurora
f  186/162/6  181/176/6  184/177/6  185/163/6

o entity0_brush24
usemtl arcade/trench/aurora
f  187/204/15  188/205/15  189/206/15  190/207/15
usemtl arcade/trench/aurora
f  191/208/2  189/209/2  188/210/2  192/211/2
usemtl arcade/trench/aurora
f  192/212/3  188/213/3  187/194/3
usemtl arcade/trench/aurora
f  190/194/4  189/213/4  191/212/4
usemtl arcade/trench/aurora
f  192/211/16  187/197/16  190/196/16  191/208/16

o entity0_brush25
usemtl arcade/trench/aurora
f  193/210/17  194/182/17  195/185/17  196/209/17
usemtl arcade/trench/aurora
f  197/200/2  195/178/2  194/179/2  198/201/2
usemtl arcade/trench/aurora
f  198/202/3  194/180/3  193/214/3  199/215/3
usemtl arcade/trench/aurora
f  200/215/4  196/214/4  195/180/4  197/202/4
usemtl arcade/trench/aurora
f  199/211/5  193/210/5  196/209/5  200/208/5
usemtl arcade/trench/aurora
f  199/211/18  200/208/18  197/199/18  198/198/18

o entity0_brush26
usemtl arcade/trench/aurora
f  201/216/1  202/193/1  203/176/1  204/217/1
usemtl arcade/trench/aurora
f  204/218/19  203/183/19  205/210/19  206/219/19
usemtl arcade/trench/aurora
f  207/210/20  202/183/20  201/218/20  208/219/20
usemtl arcade/trench/aurora
f  209/220/2  206/219/2  205/210/2  210/211/2
usemtl arcade/trench/aurora
f  211/203/3  210/215/3  205/214/3  203/181/3  202/195/3  207/213/3  212/212/3  213/190/3
usemtl arcade/trench/aurora
f  214/221/4  215/222/4  208/223/4  201/224/4  204/225/4  206/226/4  209/227/4  216/228/4
usemtl arcade/trench/aurora
f  212/211/5  207/210/5  208/219/5  215/220/5
usemtl arcade/trench/aurora
f  213/189/21  212/211/21  215/220/21  214/229/21
usemtl arcade/trench/aurora
f  216/229/22  209/220/22  210/211/22  211/189/22
usemtl arcade/trench/aurora
f  213/193/6  214/216/6  216/217/6  211/176/6

o entity0_brush27
usemtl arcade/trench/aurora
f  217/230/1  218/231/1  219/232/1  220/233/1
usemtl arcade/trench/aurora
f  221/234/2  219/235/2  218/236/2  222/237/2
usemtl arcade/trench/aurora
f  222/238/3  218/239/3  217/240/3  223/241/3
usemtl arcade/trench/aurora
f  224/241/4  220/240/4  219/239/4  221/238/4
usemtl arcade/trench/aurora
f  223/237/5  217/236/5  220/235/5  224/234/5
usemtl arcade/trench/aurora
f  224/233/6  221/232/6  222/231/6  223/230/6

o entity0_brush28
usemtl arcade/trench/aurora
f  225/230/1  226/242/1  227/243/1  228/233/1
usemtl arcade/trench/aurora
f  229/244/2  227/245/2  226/246/2  230/247/2
usemtl arcade/trench/aurora
f  230/248/3  226/249/3  225/250/3  231/251/3
usemtl arcade/trench/aurora
f  232/251/4  228/250/4  227/249/4  229/248/4
usemtl arcade/trench/aurora
f  231/247/5  225/246/5  228/245/5  232/244/5
usemtl arcade/trench/aurora
f  232/233/6  229/243/6  230/242/6  231/230/6

o entity0_brush29
usemtl arcade/trench/aurora
f  233/230/1  234/231/1  235/232/1  236/233/1
usemtl arcade/trench/aurora
f  237/252/2  235/235/2  234/236/2  238/253/2
usemtl arcade/trench/aurora
f  238/254/3  234/239/3  233/240/3  239/255/3
usemtl arcade/trench/aurora
f  240/255/4  236/240/4  235/239/4  237/254/4
usemtl arcade/trench/aurora
f  239/253/5  233/236/5  236/235/5  240/252/5
usemtl arcade/trench/aurora
f  240/233/6  237/232/6  238/231/6  239/230/6

o entity0_brush30
usemtl backgrounds/test3
f  241/256/23  242/257/23  243/258/23  244/259/23
usemtl arcade/trench/city/metal/metal_16
f  245/260/2  243/261/2  242/262/2  246/263/2
usemtl arcade/trench/city/metal/metal_16
f  246/264/3  242/265/3  241/266/3  247/267/3
usemtl arcade/trench/city/metal/metal_16
f  248/267/4  244/266/4  243/265/4  245/264/4
usemtl arcade/trench/city/metal/metal_16
f  247/268/24  241/269/24  244/270/24  248/271/24
usemtl arcade/trench/city/metal/metal_16
f  248/272/6  245/273/6  246/274/6  247/275/6

o entity0_brush31
usemtl arcade/trench/city/metal/metal_16
f  249/275/1  250/276/1  251/277/1  252/272/1
usemtl arcade/trench/city/metal/metal_16
f  253/278/2  251/279/2  250/280/2  254/281/2
usemtl arcade/trench/city/metal/metal_16
f  254/282/3  250/283/3  249/284/3  255/285/3
usemtl arcade/trench/city/metal/metal_16
f  256/285/4  252/284/4  251/283/4  253/282/4
usemtl arcade/trench/city/metal/metal_16
f  255/281/5  249/280/5  252/279/5  256/278/5
usemtl backgrounds/test3
f  256/286/6  253/287/6  254/288/6  255/289/6

o entity0_brush32
usemtl backgrounds/test3
f  257/289/1  258/290/1  259/291/1  260/292/1
usemtl arcade/trench/city/metal/metal_16
f  261/293/2  259/294/2  258/281/2  262/262/2
usemtl arcade/trench/city/metal/metal_16
f  262/265/3  258/295/3  257/285/3  263/296/3
usemtl backgrounds/test3
f  264/297/4  260/298/4  259/299/4  261/300/4
usemtl arcade/trench/city/metal/metal_16
f  263/262/5  257/281/5  260/294/5  264/293/5
usemtl backgrounds/test3
f  264/292/6  261/291/6  262/290/6  263/289/6

o entity0_brush33
usemtl backgrounds/test3
f  265/301/1  266/302/1  267/303/1  268/304/1
usemtl backgrounds/test3
f  269/305/2  267/306/2  266/307/2  270/308/2
usemtl backgrounds/test3
f  270/309/3  266/310/3  265/311/3  271/312/3
usemtl backgrounds/test3
f  272/312/4  268/311/4  267/310/4  269/309/4
usemtl backgrounds/test3
f  271/308/5  265/307/5  268/306/5  272/305/5
usemtl backgrounds/test3
f  272/304/6  269/303/6  270/302/6  271/301/6

o entity0_brush34
usemtl backgrounds/test3
f  273/313/1  274/302/1  275/314/1
usemtl backgrounds/test3
f  276/315/25  275/316/25  274/310/25  277/309/25
usemtl backgrounds/test3
f  277/309/3  274/310/3  273/316/3  278/315/3
usemtl backgrounds/test3
f  278/308/5  273/307/5  275/306/5  276/305/5
usemtl backgrounds/test3
f  277/302/6  278/313/6  276/314/6

o entity0_brush35
usemtl clean/chainlink
f  279/317/1  280/318/1  281/319/1  282/320/1
usemtl clean/chainlink
f  283/321/2  281/322/2  280/323/2  284/324/2
usemtl clean/chainlink
f  284/325/3  280/326/3  279/327/3  285/328/3
usemtl clean/chainlink
f  286/328/4  282/327/4  281/326/4  283/325/4
usemtl clean/chainlink
f  285/324/5  279/323/5  282/322/5  286/321/5
usemtl clean/chainlink
f  286/320/6  283/319/6  284/318/6  285/317/6

o entity0_brush36
usemtl clean/chainlink
f  287/329/1  288/330/1  289/331/1  290/332/1
usemtl arcade/trench/city/metal/metal_16
f  291/261/2  289/333/2  288/334/2  292/335/2
usemtl backgrounds/test3
f  292/300/3  288/336/3  287/337/3  293/297/3
usemtl arcade/trench/city/metal/metal_16
f  294/296/4  290/338/4  289/339/4  291/265/4
usemtl arcade/trench/city/metal/metal_16
f  293/335/5  287/334/5  290/333/5  294/261/5
usemtl backgrounds/test3
f  294/286/6  291/340/6  292/341/6  293/342/6

o entity0_brush37
usemtl backgrounds/test3
f  295/342/1  296/341/1  297/340/1  298/286/1
usemtl arcade/trench/city/metal/metal_16
f  299/343/2  297/278/2  296/344/2  300/345/2
usemtl backgrounds/test3
f  300/346/3  296/299/3  295/298/3  301/347/3
usemtl arcade/trench/city/metal/metal_16
f  302/348/4  298/285/4  297/295/4  299/349/4
usemtl arcade/trench/city/metal/metal_16
f  301/345/5  295/344/5  298/278/5  302/343/5
usemtl clean/chainlink
f  302/332/6  299/331/6  300/330/6  301/329/6

o entity0_brush38
usemtl clean/chainlink
f  303/329/1  304/350/1  305/351/1  306/332/1
usemtl clean/chainlink
f  307/352/2  305/353/2  304/354/2  308/355/2
usemtl backgrounds/test3
f  308/356/3  304/357/3  303/347/3  309/337/3
usemtl arcade/trench/city/metal/metal_16
f  310/338/4  306/348/4  305/358/4  307/359/4
usemtl arcade/trench/city/metal/metal_16
f  309/334/5  303/345/5  306/343/5  310/333/5
usemtl clean/chainlink
f  310/332/6  307/351/6  308/350/6  309/329/6

o entity0_brush39
usemtl clean/chainlink
f  311/360/1  312/330/1  313/331/1  314/361/1
usemtl arcade/trench/city/metal/metal_16
f  315/333/2  313/343/2  312/345/2  316/334/2
usemtl backgrounds/test3
f  316/336/3  312/346/3  311/362/3  317/363/3
usemtl arcade/trench/city/metal/metal_16
f  318/364/4  314/365/4  313/349/4  315/339/4
usemtl clean/chainlink
f  317/355/5  311/354/5  314/353/5  318/352/5
usemtl clean/chainlink
f  318/361/6  315/331/6  316/330/6  317/360/6

o entity0_brush40
usemtl clean/chainlink
f  319/366/1  320/367/1  321/368/1  322/369/1
usemtl clean/chainlink
f  323/370/2  321/371/2  320/372/2  324/373/2
usemtl clean/chainlink
f  324/374/3  320/375/3  319/376/3  325/377/3
usemtl clean/chainlink
f  326/377/4  322/376/4  321/375/4  323/374/4
usemtl clean/chainlink
f  325/373/5  319/372/5  322/371/5  326/370/5
usemtl clean/chainlink
f  326/369/6  323/368/6  324/367/6  325/366/6

o entity0_brush41
usemtl backgrounds/test3
f  327/313/1  328/302/1  329/314/1
usemtl backgrounds/test3
f  330/315/25  329/316/25  328/310/25  331/309/25
usemtl backgrounds/test3
f  331/309/3  328/310/3  327/316/3  332/315/3
usemtl backgrounds/test3
f  332/308/5  327/307/5  329/306/5  330/305/5
usemtl backgrounds/test3
f  331/302/6  332/313/6  330/314/6

o entity0_brush42
usemtl backgrounds/test3
f  333/378/1  334/304/1  335/379/1  336/380/1
usemtl backgrounds/test3
f  337/381/2  335/382/2  334/383/2  338/384/2
usemtl backgrounds/test3
f  338/385/3  334/386/3  333/387/3  339/388/3
usemtl backgrounds/test3
f  340/388/4  336/387/4  335/386/4  337/385/4
usemtl backgrounds/test3
f  339/384/5  333/383/5  336/382/5  340/381/5
usemtl backgrounds/test3
f  340/380/6  337/379/6  338/304/6  339/378/6

o entity0_brush43
usemtl backgrounds/test3
f  341/304/1  342/389/1  343/390/1  344/379/1
usemtl backgrounds/test3
f  345/391/2  343/392/2  342/306/2  346/393/2
usemtl backgrounds/test3
f  346/394/3  342/395/3  341/311/3  347/396/3
usemtl backgrounds/test3
f  348/396/4  344/311/4  343/395/4  345/394/4
usemtl backgrounds/test3
f  347/393/5  341/306/5  344/392/5  348/391/5
usemtl backgrounds/test3
f  348/379/6  345/390/6  346/389/6  347/304/6

o entity0_brush44
usemtl backgrounds/test3
f  349/304/1  350/389/1  351/390/1  352/379/1
usemtl backgrounds/test3
f  353/391/2  351/392/2  350/306/2  354/393/2
usemtl backgrounds/test3
f  354/394/3  350/395/3  349/311/3  355/396/3
usemtl backgrounds/test3
f  356/396/4  352/311/4  351/395/4  353/394/4
usemtl backgrounds/test3
f  355/393/5  349/306/5  352/392/5  356/391/5
usemtl backgrounds/test3
f  356/379/6  353/390/6  354/389/6  355/304/6

o entity0_brush45
usemtl amp-texture
f  357/397/26  358/398/26  359/399/26  360/400/26
usemtl amp-texture
f  360/401/2  359/402/2  361/403/2
usemtl amp-texture
f  362/403/5  358/402/5  357/401/5
usemtl amp-texture
f  361/400/27  359/399/27  358/398/27  362/397/27
usemtl amp-texture
f  357/404/6  360/405/6  361/406/6  362/407/6

o entity0_brush46
usemtl arcade/trench/aurora
f  363/146/1  364/145/1  365/144/1  366/143/1
usemtl arcade/trench/aurora
f  367/408/2  365/6/2  364/7/2  368/409/2
usemtl arcade/trench/aurora
f  368/410/3  364/411/3  363/412/3  369/413/3
usemtl arcade/trench/aurora
f  370/413/4  366/412/4  365/411/4  367/410/4
usemtl arcade/trench/aurora
f  369/409/5  363/7/5  366/6/5  370/408/5
usemtl arcade/trench/aurora
f  370/136/6  367/135/6  368/134/6  369/133/6

o entity4_brush0
usemtl arcade/trench/aurora
f  371/414/28  372/415/28  373/416/28  374/417/28
usemtl arcade/trench/aurora
f  375/418/29  373/419/29  372/420/29  376/421/29
usemtl arcade/trench/aurora
f  377/422/3  374/423/3  373/424/3  375/425/3
usemtl arcade/trench/aurora
f  376/425/4  372/424/4  371/423/4  378/422/4
usemtl arcade/trench/aurora
f  378/421/30  371/420/30  374/419/30  377/418/30
usemtl arcade/trench/aurora
f  376/426/31  378/427/31  377/428/31  375/429/31

o entity5_brush0
usemtl arcade/trench/aurora
f  379/430/32  380/431/32  381/432/32  382/433/32
usemtl arcade/trench/aurora
f  383/418/33  381/434/33  380/435/33  384/421/33
usemtl arcade/trench/aurora
f  385/436/3  382/437/3  381/438/3  383/439/3
usemtl arcade/trench/aurora
f  384/439/4  380/438/4  379/437/4  386/436/4
usemtl arcade/trench/aurora
f  386/421/34  379/420/34  382/419/34  385/418/34
usemtl arcade/trench/aurora
f  383/440/35  384/441/35  386/430/35  385/433/35

o entity6_brush0
usemtl arcade/trench/aurora
f  387/442/36  388/443/36  389/444/36  390/445/36
usemtl arcade/trench/aurora
f  391/430/37  389/441/37  388/440/37  392/433/37
usemtl arcade/trench/aurora
f  392/446/3  388/447/3  387/448/3  393/449/3
usemtl arcade/trench/aurora
f  394/449/4  390/448/4  389/447/4  391/446/4
usemtl arcade/trench/aurora
f  393/450/38  387/451/38  390/452/38  394/453/38
usemtl arcade/trench/aurora
f  394/454/39  391/455/39  392/456/39  393/457/39

