# Blender 4.5.3 LTS
# www.blender.org
mtllib testmap.mtl
o entity0_brush0
v 64.000000 -64.000000 16.000006
v 64.000000 -63.999989 144.000000
v 64.000000 -31.999989 144.000000
v 64.000000 -31.999998 16.000002
v 256.000000 -31.999989 144.000000
v 256.000000 -63.999989 144.000000
v 256.000000 -64.000000 16.000006
v 256.000000 -31.999998 16.000002
v -112.000000 -63.999996 48.000004
v -112.000000 -63.999992 112.000008
v -112.000000 -31.999992 112.000000
v -112.000000 -31.999996 48.000004
v 64.000000 -31.999992 112.000000
v 64.000000 -63.999992 112.000008
v 64.000000 -63.999996 48.000004
v 64.000000 -31.999996 48.000004
v -112.000000 -31.999992 96.000000
v -112.000000 -31.999989 160.000000
v -112.000000 48.000011 160.000000
v -112.000000 48.000008 96.000000
v 64.000000 48.000011 160.000000
v 64.000000 -31.999989 160.000000
v 64.000000 -31.999992 96.000000
v 64.000000 48.000008 96.000000
v -256.000000 -48.000004 -47.999996
v -256.000000 -47.999996 48.000004
v -256.000000 -31.999996 48.000004
v -256.000000 -32.000004 -47.999996
v -96.000000 -31.999996 48.000004
v -96.000000 -47.999996 48.000004
v -96.000000 -48.000004 -47.999996
v -96.000000 -32.000004 -47.999996
v -256.000000 -32.000004 -47.999996
v -256.000000 -32.000004 -31.999998
v -224.000000 31.999998 -32.000004
v -224.000000 31.999996 -48.000004
v -112.000000 63.999996 -48.000004
v -112.000000 63.999996 -32.000004
v -96.000000 -32.000004 -31.999998
v -96.000000 -32.000004 -47.999996
v -256.000000 -31.999998 32.000004
v -256.000000 -31.999996 48.000004
v -224.000000 32.000004 47.999996
v -224.000000 32.000004 31.999998
v -112.000000 64.000000 31.999994
v -112.000000 64.000000 47.999996
v -96.000000 -31.999996 48.000004
v -96.000000 -31.999998 32.000004
v -96.000000 -64.000015 -160.000000
v -96.000000 -63.999996 48.000004
v -96.000000 -31.999996 48.000004
v -96.000000 -32.000011 -160.000000
v -32.000000 -31.999996 48.000004
v -32.000000 -63.999996 48.000004
v -32.000000 -64.000015 -160.000000
v -32.000000 -32.000011 -160.000000
v -224.000000 -64.000015 -160.000000
v -224.000000 -64.000008 -63.999996
v -224.000000 -32.000004 -63.999996
v -224.000000 -32.000011 -160.000000
v -96.000000 -32.000004 -63.999996
v -96.000000 -64.000008 -63.999996
v -96.000000 -64.000015 -160.000000
v -96.000000 -32.000011 -160.000000
v 64.000000 -31.999990 128.000000
v 64.000000 -31.999989 144.000000
v 64.000000 48.000011 144.000000
v 64.000000 48.000011 128.000000
v 256.000000 48.000011 144.000000
v 256.000000 -31.999989 144.000000
v 256.000000 -31.999990 128.000000
v 256.000000 48.000011 128.000000
v 64.000000 -31.999998 16.000002
v 64.000000 -31.999998 32.000004
v 64.000000 48.000004 31.999996
v 64.000000 48.000000 15.999996
v 256.000000 48.000004 31.999996
v 256.000000 -31.999998 32.000004
v 256.000000 -31.999998 16.000002
v 256.000000 48.000000 15.999996
v 64.000000 32.000004 31.999998
v 64.000000 32.000011 128.000000
v 64.000000 48.000011 128.000000
v 64.000000 48.000004 31.999996
v 256.000000 48.000011 128.000000
v 256.000000 32.000011 128.000000
v 256.000000 32.000004 31.999998
v 256.000000 48.000004 31.999996
v 240.000000 -31.999992 112.000000
v 240.000000 -31.999990 128.000000
v 240.000000 32.000011 128.000000
v 240.000000 32.000008 112.000000
v 256.000000 32.000011 128.000000
v 256.000000 -31.999990 128.000000
v 256.000000 -31.999992 112.000000
v 256.000000 32.000008 112.000000
v 240.000000 -31.999998 32.000004
v 240.000000 -31.999996 48.000004
v 240.000000 32.000004 47.999996
v 240.000000 32.000004 31.999998
v 256.000000 32.000004 47.999996
v 256.000000 -31.999996 48.000004
v 256.000000 -31.999998 32.000004
v 256.000000 32.000004 31.999998
v 240.000000 -31.999994 64.000000
v 240.000000 -31.999992 96.000000
v 240.000000 32.000008 96.000000
v 240.000000 32.000004 63.999996
v 256.000000 32.000008 96.000000
v 256.000000 -31.999992 96.000000
v 256.000000 -31.999994 64.000000
v 256.000000 32.000004 63.999996
vn -1.0000 -0.0000 -0.0000
vn -0.0000 -0.0000 1.0000
vn -0.0000 -1.0000 -0.0000
vn -0.0000 1.0000 -0.0000
vn -0.0000 -0.0000 -1.0000
vn 1.0000 -0.0000 -0.0000
vn -0.8944 0.4472 -0.0000
vn -0.2747 0.9615 -0.0000
vn 0.9864 0.1644 -0.0000
vt 64.000000 -16.000000
vt -64.000000 -16.000000
vt -64.000000 16.000000
vt 64.000000 16.000000
vt 96.000000 16.000000
vt -96.000000 16.000000
vt -96.000000 -16.000000
vt 96.000000 -16.000000
vt 96.000000 -64.000000
vt -96.000000 -64.000000
vt -96.000000 64.000000
vt 96.000000 64.000000
vt 32.000000 -16.000000
vt -32.000000 -16.000000
vt -32.000000 16.000000
vt 32.000000 16.000000
vt -272.000000 16.000000
vt -272.000000 -16.000000
vt -96.000000 -32.000000
vt -272.000000 -32.000000
vt -272.000000 32.000000
vt -96.000000 32.000000
vt -16.000000 16.000000
vt -80.000000 16.000000
vt -80.000000 96.000000
vt -16.000000 96.000000
vt -96.000000 96.000000
vt -272.000000 96.000000
vt -96.000000 -80.000000
vt -272.000000 -80.000000
vt 128.000000 -0.000000
vt 32.000000 -0.000000
vt 128.000000 16.000000
vt -256.000000 16.000000
vt -416.000000 16.000000
vt -416.000000 -0.000000
vt -256.000000 -0.000000
vt -256.000000 32.000000
vt -416.000000 32.000000
vt -416.000000 128.000000
vt -256.000000 128.000000
vt 112.000000 16.000000
vt 112.000000 80.000000
vt 128.000000 80.000000
vt -272.000000 128.000000
vt -384.000000 128.000000
vt -384.000000 112.000000
vt -272.000000 112.000000
vt -384.000000 80.000000
vt -256.000000 112.000000
vt -416.000000 112.000000
vt 128.000000 112.000000
vt 112.000000 112.000000
vt 48.000000 16.000000
vt 32.000000 80.000000
vt 48.000000 80.000000
vt -272.000000 48.000000
vt -384.000000 48.000000
vt -384.000000 32.000000
vt -416.000000 48.000000
vt -256.000000 48.000000
vt 48.000000 112.000000
vt 32.000000 112.000000
vt 240.000000 -16.000000
vt 240.000000 16.000000
vt -192.000000 16.000000
vt -256.000000 -16.000000
vt -192.000000 -16.000000
vt -192.000000 32.000000
vt -256.000000 240.000000
vt -192.000000 240.000000
vt 144.000000 -16.000000
vt 144.000000 16.000000
vt -384.000000 16.000000
vt -384.000000 -16.000000
vt -256.000000 144.000000
vt -384.000000 144.000000
vt -384.000000 240.000000
vt -48.000000 16.000000
vt -64.000000 96.000000
vt -48.000000 96.000000
vt 96.000000 96.000000
vt -96.000000 -48.000000
vt 96.000000 -48.000000
vt 48.000000 96.000000
vt 64.000000 96.000000
vt 96.000000 48.000000
vt -96.000000 48.000000
vt -48.000000 80.000000
vt -96.000000 80.000000
vt 96.000000 80.000000
vt -32.000000 80.000000
vt 80.000000 80.000000
vt 80.000000 16.000000
vt 80.000000 -48.000000
vt 80.000000 -32.000000
vt 96.000000 -32.000000
vt 96.000000 32.000000
vt 80.000000 32.000000
vt 80.000000 48.000000
vt 16.000000 16.000000
vt -16.000000 80.000000
vt 16.000000 80.000000
vt 80.000000 -16.000000
s 1
usemtl 
f 1/1/1 2/2/1 3/3/1 4/4/1
f 5/5/2 3/6/2 2/7/2 6/8/2
f 6/9/3 2/10/3 1/11/3 7/12/3
f 8/12/4 4/11/4 3/10/4 5/9/4
f 7/8/5 1/7/5 4/6/5 8/5/5
f 8/4/6 5/3/6 6/2/6 7/1/6
f 9/13/1 10/14/1 11/15/1 12/16/1
f 13/6/2 11/17/2 10/18/2 14/7/2
f 14/19/3 10/20/3 9/21/3 15/22/3
f 16/22/4 12/21/4 11/20/4 13/19/4
f 15/7/5 9/18/5 12/17/5 16/6/5
f 16/16/6 13/15/6 14/14/6 15/13/6
f 17/23/1 18/24/1 19/25/1 20/26/1
f 21/27/2 19/28/2 18/17/2 22/6/2
f 22/29/3 18/30/3 17/18/3 23/7/3
f 24/7/4 20/18/4 19/30/4 21/29/4
f 23/6/5 17/17/5 20/28/5 24/27/5
f 24/26/6 21/25/6 22/24/6 23/23/6
f 25/31/1 26/32/1 27/16/1 28/33/1
f 29/34/2 27/35/2 26/36/2 30/37/2
f 30/38/3 26/39/3 25/40/3 31/41/3
f 32/41/4 28/40/4 27/39/4 29/38/4
f 31/37/5 25/36/5 28/35/5 32/34/5
f 32/33/6 29/16/6 30/32/6 31/31/6
f 33/33/7 34/42/7 35/43/7 36/44/7
f 37/45/8 36/46/8 35/47/8 38/48/8
f 38/48/2 35/49/2 34/35/2 39/34/2
f 39/50/3 34/51/3 33/40/3 40/41/3
f 40/34/5 33/35/5 36/49/5 37/48/5
f 39/42/9 40/33/9 37/52/9 38/53/9
f 41/54/7 42/16/7 43/55/7 44/56/7
f 45/57/8 44/58/8 43/59/8 46/21/8
f 46/48/2 43/49/2 42/35/2 47/34/2
f 47/38/3 42/39/3 41/60/3 48/61/3
f 48/34/5 41/35/5 44/49/5 45/48/5
f 47/16/9 48/54/9 45/62/9 46/63/9
f 49/64/1 50/13/1 51/16/1 52/65/1
f 53/66/2 51/34/2 50/67/2 54/68/2
f 54/69/3 50/38/3 49/70/3 55/71/3
f 56/71/4 52/70/4 51/38/4 53/69/4
f 55/68/5 49/67/5 52/34/5 56/66/5
f 56/65/6 53/16/6 54/13/6 55/64/6
f 57/64/1 58/72/1 59/73/1 60/65/1
f 61/34/2 59/74/2 58/75/2 62/67/2
f 62/76/3 58/77/3 57/78/3 63/70/3
f 64/70/4 60/78/4 59/77/4 61/76/4
f 63/67/5 57/75/5 60/74/5 64/34/5
f 64/65/6 61/73/6 62/72/6 63/64/6
f 65/79/1 66/3/1 67/80/1 68/81/1
f 69/82/2 67/27/2 66/6/2 70/5/2
f 70/9/3 66/10/3 65/83/3 71/84/3
f 72/84/4 68/83/4 67/10/4 69/9/4
f 71/5/5 65/6/5 68/27/5 72/82/5
f 72/81/6 69/80/6 70/3/6 71/79/6
f 73/4/1 74/54/1 75/85/1 76/86/1
f 77/82/2 75/27/2 74/6/2 78/5/2
f 78/87/3 74/88/3 73/11/3 79/12/3
f 80/12/4 76/11/4 75/88/4 77/87/4
f 79/5/5 73/6/5 76/27/5 80/82/5
f 80/86/6 77/85/6 78/54/6 79/4/6
f 81/56/1 82/89/1 83/81/1 84/85/1
f 85/82/2 83/27/2 82/90/2 86/91/2
f 86/84/3 82/83/3 81/88/3 87/87/3
f 88/87/4 84/88/4 83/83/4 85/84/4
f 87/91/5 81/90/5 84/27/5 88/82/5
f 88/85/6 85/81/6 86/89/6 87/56/6
f 89/15/1 90/79/1 91/89/1 92/92/1
f 93/91/2 91/93/2 90/94/2 94/5/2
f 94/84/3 90/95/3 89/96/3 95/97/3
f 96/97/4 92/96/4 91/95/4 93/84/4
f 95/5/5 89/94/5 92/93/5 96/91/5
f 96/92/6 93/89/6 94/79/6 95/15/6
f 97/54/1 98/16/1 99/55/1 100/56/1
f 101/91/2 99/93/2 98/94/2 102/5/2
f 102/98/3 98/99/3 97/100/3 103/87/3
f 104/87/4 100/100/4 99/99/4 101/98/4
f 103/5/5 97/94/5 100/93/5 104/91/5
f 104/56/6 101/55/6 102/16/6 103/54/6
f 105/101/1 106/23/1 107/102/1 108/103/1
f 109/91/2 107/93/2 106/94/2 110/5/2
f 110/8/3 106/104/3 105/94/3 111/5/3
f 112/5/4 108/94/4 107/104/4 109/8/4
f 111/5/5 105/94/5 108/93/5 112/91/5
f 112/103/6 109/102/6 110/23/6 111/101/6
